<svg xmlns="http://www.w3.org/2000/svg" width="21" height="17" fill="none" viewBox="0 0 21 17">
  <path fill="#000" d="M4.215 7.225 11.64.265c.114-.107.01-.265-.177-.265H9.301a.527.527 0 0 0-.353.125L1.806 6.821a.557.557 0 0 0-.19.405c0 .147.067.29.19.405l7.142 6.694c.084.08.216.125.353.125h2.162c.188 0 .291-.158.177-.265l-7.425-6.96Zm8.505 0 7.424-6.96C20.26.158 20.156 0 19.968 0h-2.163a.527.527 0 0 0-.352.125l-7.142 6.696a.557.557 0 0 0-.191.405c0 .147.067.29.19.405l7.143 6.694c.084.08.215.125.352.125h2.163c.188 0 .291-.158.176-.265l-7.424-6.96Z"/>
</svg>
